<?xml version="1.0" standalone="no"?>
<!DOCTYPE svg PUBLIC "-//W3C//DTD SVG 20010904//EN"
 "http://www.w3.org/TR/2001/REC-SVG-20010904/DTD/svg10.dtd">
<svg version="1.0" xmlns="http://www.w3.org/2000/svg"
 width="700.000000pt" height="700.000000pt" viewBox="0 0 700.000000 700.000000"
 preserveAspectRatio="xMidYMid meet">
<metadata>
Created by potrace 1.11, written by Peter Selinger 2001-2013
</metadata>
<g transform="translate(0.000000,700.000000) scale(0.100000,-0.100000)"
fill="#000000" stroke="none">
<path d="M3270 6994 c-320 -21 -605 -78 -910 -183 -1107 -378 -1965 -1309
-2250 -2441 -79 -314 -104 -520 -104 -860 -1 -270 8 -384 45 -600 34 -194 119
-510 137 -510 13 0 677 222 683 229 4 3 -4 42 -17 86 -114 386 -142 860 -74
1263 148 870 703 1614 1495 2002 347 170 669 255 1065 280 510 32 1039 -87
1492 -336 377 -208 717 -518 957 -874 293 -433 442 -887 477 -1452 l6 -98 365
0 366 0 -6 143 c-49 1069 -564 2036 -1421 2672 -489 362 -1041 581 -1666 660
-119 15 -519 27 -640 19z"/>
<path d="M3305 5993 c-501 -42 -953 -218 -1345 -521 -117 -91 -306 -277 -401
-395 -299 -370 -471 -773 -541 -1262 -16 -117 -16 -483 1 -605 102 -744 489
-1373 1093 -1779 316 -212 667 -344 1073 -403 137 -20 522 -17 665 5 547 84
1031 327 1410 707 416 418 663 944 721 1540 14 150 6 440 -16 585 -92 597
-382 1121 -841 1522 l-71 63 -223 -282 c-123 -155 -223 -287 -224 -293 -1 -6
31 -39 69 -73 537 -477 723 -1239 468 -1922 -172 -462 -560 -851 -1016 -1022
-213 -79 -388 -110 -622 -111 -235 -1 -412 30 -625 110 -467 174 -851 559
-1024 1025 -78 209 -108 383 -108 618 0 181 11 279 52 440 137 544 552 1006
1080 1203 241 90 525 131 750 109 52 -6 97 -8 99 -6 4 4 86 614 93 694 l3 35
-110 12 c-103 10 -320 14 -410 6z"/>
<path d="M3260 5015 c-326 -56 -593 -191 -828 -419 -303 -294 -462 -670 -462
-1096 0 -414 145 -771 434 -1068 294 -303 670 -462 1096 -462 426 0 802 159
1096 462 289 297 434 654 434 1068 0 414 -145 771 -434 1068 -236 244 -522
391 -866 448 -105 17 -367 16 -470 -1z"/>
<path d="M5910 2133 c-117 -209 -263 -396 -455 -588 -269 -269 -559 -463 -900
-603 -348 -142 -671 -205 -1055 -205 -597 1 -1145 179 -1619 527 l-88 64 -224
-284 c-123 -156 -225 -287 -226 -291 -3 -9 184 -146 294 -217 375 -238 831
-412 1273 -485 228 -38 323 -45 580 -45 258 0 377 9 594 45 626 104 1218 382
1696 795 217 187 477 479 627 704 84 126 195 322 186 331 -10 10 -623 329
-632 329 -4 0 -27 -35 -51 -77z"/>
</g>
</svg>
