<svg xmlns="http://www.w3.org/2000/svg" xmlns:xlink="http://www.w3.org/1999/xlink" xml:space="preserve" width="100" height="100" shape-rendering="geometricPrecision" text-rendering="geometricPrecision" image-rendering="optimizeQuality" fill-rule="evenodd" clip-rule="evenodd" viewBox="0 0 100 100">
    <g fill="#7f8c8d">
        <g>
            <circle cx="50" cy="50" r="17.8"></circle>
            <path d="M50,78.9c16,0,28.9-13,28.9-28.9c0-8.9-4-17.1-10.9-22.6l-5.3,6.7c4.9,3.9,7.7,9.7,7.7,15.9c0,11.2-9.1,20.4-20.4,20.4   c-11.2,0-20.4-9.1-20.4-20.4S38.8,29.6,50,29.6c0.9,0,1.8,0.1,2.7,0.2l1.1-8.5c-1.3-0.2-2.6-0.3-3.9-0.3c-16,0-28.9,13-28.9,28.9   C21.1,66,34,78.9,50,78.9z"></path>
            <path d="M50,82.1c-7.3,0-14.1-2.4-19.8-6.9l-5.3,6.7c7.2,5.7,15.9,8.7,25.1,8.7c15.2,0,29-8.4,36-21.8l-7.5-3.9   C72.9,75.5,62,82.1,50,82.1z"></path>
            <path d="M46.4,18.1c1.2-0.1,2.4-0.2,3.6-0.2c17.7,0,32.1,14.4,32.1,32.1h8.5C90.6,27.6,72.4,9.4,50,9.4c-1.5,0-3,0.1-4.5,0.2   C24.9,11.9,9.4,29.3,9.4,50c0,4.4,0.7,8.7,2.1,12.8l8.1-2.7c-1.1-3.3-1.6-6.7-1.6-10.2C17.9,33.6,30.2,19.9,46.4,18.1z"></path>
        </g>
    </g>
</svg>